<svg width="99" height="38" viewBox="0 0 99 38" fill="none" xmlns="http://www.w3.org/2000/svg">
<path d="M20.9455 12C20.8508 10.8162 20.4069 9.89295 19.6138 9.23007C18.8326 8.56719 17.6429 8.23575 16.0449 8.23575C15.0269 8.23575 14.1924 8.36004 13.5414 8.60862C12.9022 8.84536 12.4287 9.17088 12.1209 9.58518C11.8132 9.99948 11.6534 10.473 11.6415 11.0056C11.6178 11.4436 11.6948 11.8402 11.8723 12.1953C12.0617 12.5385 12.3577 12.8522 12.7601 13.1363C13.1626 13.4086 13.6775 13.6572 14.3049 13.8821C14.9322 14.107 15.678 14.3082 16.5421 14.4858L19.525 15.125C21.5373 15.5511 23.2596 16.1134 24.6919 16.8117C26.1242 17.5101 27.2961 18.3328 28.2076 19.2798C29.119 20.2149 29.7878 21.2684 30.214 22.4403C30.6519 23.6122 30.8768 24.8906 30.8887 26.2755C30.8768 28.6666 30.2791 30.6908 29.0953 32.348C27.9116 34.0052 26.2189 35.2658 24.0172 36.1299C21.8274 36.994 19.1936 37.4261 16.1159 37.4261C12.9554 37.4261 10.1974 36.9585 7.8418 36.0234C5.49805 35.0883 3.67513 33.6501 2.37305 31.7088C1.0828 29.7556 0.431759 27.258 0.419922 24.2159H9.79492C9.85411 25.3286 10.1323 26.2637 10.6294 27.0213C11.1266 27.7788 11.825 28.3529 12.7246 28.7436C13.6361 29.1342 14.7192 29.3295 15.9739 29.3295C17.0274 29.3295 17.9093 29.1993 18.6195 28.9389C19.3297 28.6785 19.8683 28.3174 20.2353 27.8558C20.6022 27.3941 20.7916 26.8674 20.8034 26.2755C20.7916 25.7192 20.6081 25.2339 20.253 24.8196C19.9097 24.3934 19.3416 24.0146 18.5485 23.6832C17.7554 23.3399 16.6841 23.0203 15.3347 22.7244L11.7125 21.9431C8.49284 21.2447 5.95378 20.0788 4.09535 18.4453C2.24876 16.7999 1.33138 14.5568 1.34322 11.7159C1.33138 9.40763 1.94691 7.3894 3.18981 5.66118C4.44454 3.92112 6.17868 2.56577 8.39222 1.59513C10.6176 0.624482 13.1685 0.13916 16.0449 0.13916C18.9805 0.13916 21.5196 0.630401 23.6621 1.61288C25.8046 2.59536 27.4559 3.98031 28.6159 5.76771C29.7878 7.54328 30.3797 9.62069 30.3915 12H20.9455Z" fill="white"/>
<path d="M47.6355 37H33.644V0.63632H47.4934C51.234 0.63632 54.4655 1.3643 57.188 2.82027C59.9224 4.2644 62.0294 6.34773 63.5091 9.07027C65.0005 11.781 65.7463 15.0303 65.7463 18.8181C65.7463 22.606 65.0065 25.8612 63.5268 28.5838C62.0472 31.2945 59.952 33.3778 57.2413 34.8338C54.5306 36.2779 51.3287 37 47.6355 37ZM43.5162 28.6193H47.2804C49.0796 28.6193 50.6125 28.3293 51.8791 27.7492C53.1575 27.1692 54.1281 26.169 54.791 24.7485C55.4657 23.3281 55.8031 21.3513 55.8031 18.8181C55.8031 16.285 55.4598 14.3082 54.7733 12.8877C54.0985 11.4673 53.1042 10.467 51.7903 9.88703C50.4882 9.30701 48.8902 9.017 46.9963 9.017H43.5162V28.6193Z" fill="white"/>
<path d="M69.3139 37V0.63632H85.0099C87.7088 0.63632 90.0703 1.16899 92.0945 2.23433C94.1186 3.29967 95.6929 4.79707 96.8175 6.72652C97.942 8.65597 98.5043 10.9109 98.5043 13.4914C98.5043 16.0956 97.9242 18.3506 96.7642 20.2563C95.616 22.1621 94.0002 23.6299 91.9169 24.6598C89.8454 25.6896 87.4247 26.2045 84.6548 26.2045H75.2798V18.534H82.6662C83.8262 18.534 84.8146 18.3328 85.6314 17.9304C86.46 17.5161 87.0933 16.9301 87.5312 16.1725C87.9811 15.415 88.206 14.5213 88.206 13.4914C88.206 12.4498 87.9811 11.562 87.5312 10.8281C87.0933 10.0823 86.46 9.51416 85.6314 9.12354C84.8146 8.72107 83.8262 8.51984 82.6662 8.51984H79.1861V37H69.3139Z" fill="white"/>
</svg>
